<?xml version="1.0" standalone="no"?>
<svg viewBox="0 0 200 200" xmlns="http://www.w3.org/2000/svg">
  <path fill="#C58ADE" d="M29.9,-49.6C36.7,-47.9,38.7,-35.7,46.2,-25.7C53.6,-15.7,66.5,-7.8,66.9,0.2C67.3,8.3,55.2,16.6,48.5,27.9C41.8,39.2,40.5,53.5,33.3,62.7C26.1,71.9,13.1,75.9,4.4,68.3C-4.2,60.7,-8.5,41.3,-22.7,36.2C-37,31.2,-61.3,40.3,-68.7,36.6C-76.1,33,-66.6,16.5,-56.3,5.9C-46.1,-4.7,-35.2,-9.3,-28.7,-14.6C-22.3,-19.9,-20.3,-25.9,-16.3,-29.2C-12.2,-32.5,-6.1,-33.2,2.7,-37.9C11.6,-42.6,23.1,-51.4,29.9,-49.6Z" transform="translate(100 100)" />
</svg>
